<mxfile host="app.diagrams.net" modified="2020-12-18T15:03:26.478Z" agent="5.0 (Windows NT 10.0; Win64; x64) AppleWebKit/537.36 (KHTML, like Gecko) Chrome/87.0.4280.88 Safari/537.36 Edg/87.0.664.66" etag="JtmkWOD2OsgGBnB2c-_g" version="14.0.4" type="github">
  <diagram id="JncyCxfCkeQ2kdFRJvFO" name="Page-1">
    <mxGraphModel dx="1038" dy="548" grid="1" gridSize="10" guides="1" tooltips="1" connect="1" arrows="1" fold="1" page="1" pageScale="1" pageWidth="850" pageHeight="1100" math="0" shadow="0">
      <root>
        <mxCell id="0" />
        <mxCell id="1" parent="0" />
        <mxCell id="o-jL-rA30Tc-0fOHM3Hn-1" value="Provider" style="shape=umlActor;verticalLabelPosition=bottom;verticalAlign=top;html=1;outlineConnect=0;" parent="1" vertex="1">
          <mxGeometry x="90" y="30" width="30" height="60" as="geometry" />
        </mxCell>
        <mxCell id="o-jL-rA30Tc-0fOHM3Hn-2" value="" style="shape=umlBoundary;whiteSpace=wrap;html=1;" parent="1" vertex="1">
          <mxGeometry x="300" y="50" width="60" height="50" as="geometry" />
        </mxCell>
        <mxCell id="o-jL-rA30Tc-0fOHM3Hn-3" value="" style="ellipse;shape=umlControl;whiteSpace=wrap;html=1;" parent="1" vertex="1">
          <mxGeometry x="550" y="45" width="50" height="55" as="geometry" />
        </mxCell>
        <mxCell id="o-jL-rA30Tc-0fOHM3Hn-4" value="" style="ellipse;shape=umlEntity;whiteSpace=wrap;html=1;" parent="1" vertex="1">
          <mxGeometry x="770" y="50" width="50" height="50" as="geometry" />
        </mxCell>
        <mxCell id="o-jL-rA30Tc-0fOHM3Hn-5" value=":M_Product" style="text;html=1;strokeColor=none;fillColor=none;align=center;verticalAlign=middle;whiteSpace=wrap;rounded=0;" parent="1" vertex="1">
          <mxGeometry x="775" y="100" width="40" height="20" as="geometry" />
        </mxCell>
        <mxCell id="o-jL-rA30Tc-0fOHM3Hn-6" value=":C_ProductRemover" style="text;html=1;strokeColor=none;fillColor=none;align=center;verticalAlign=middle;whiteSpace=wrap;rounded=0;" parent="1" vertex="1">
          <mxGeometry x="555" y="100" width="40" height="20" as="geometry" />
        </mxCell>
        <mxCell id="o-jL-rA30Tc-0fOHM3Hn-7" value=":V_ProductRemoverPage" style="text;html=1;strokeColor=none;fillColor=none;align=center;verticalAlign=middle;whiteSpace=wrap;rounded=0;" parent="1" vertex="1">
          <mxGeometry x="310" y="100" width="40" height="20" as="geometry" />
        </mxCell>
        <mxCell id="o-jL-rA30Tc-0fOHM3Hn-8" value="" style="endArrow=none;dashed=1;html=1;entryX=0.5;entryY=1;entryDx=0;entryDy=0;" parent="1" target="o-jL-rA30Tc-0fOHM3Hn-5" edge="1">
          <mxGeometry width="50" height="50" relative="1" as="geometry">
            <mxPoint x="795" y="510" as="sourcePoint" />
            <mxPoint x="450" y="180" as="targetPoint" />
          </mxGeometry>
        </mxCell>
        <mxCell id="o-jL-rA30Tc-0fOHM3Hn-9" value="" style="endArrow=none;dashed=1;html=1;entryX=0.5;entryY=1;entryDx=0;entryDy=0;" parent="1" target="o-jL-rA30Tc-0fOHM3Hn-6" edge="1">
          <mxGeometry width="50" height="50" relative="1" as="geometry">
            <mxPoint x="575" y="510" as="sourcePoint" />
            <mxPoint x="450" y="180" as="targetPoint" />
          </mxGeometry>
        </mxCell>
        <mxCell id="o-jL-rA30Tc-0fOHM3Hn-10" value="" style="endArrow=none;dashed=1;html=1;entryX=0.5;entryY=1;entryDx=0;entryDy=0;" parent="1" target="o-jL-rA30Tc-0fOHM3Hn-7" edge="1">
          <mxGeometry width="50" height="50" relative="1" as="geometry">
            <mxPoint x="330" y="510" as="sourcePoint" />
            <mxPoint x="450" y="180" as="targetPoint" />
          </mxGeometry>
        </mxCell>
        <mxCell id="o-jL-rA30Tc-0fOHM3Hn-11" value="" style="endArrow=none;dashed=1;html=1;" parent="1" edge="1">
          <mxGeometry width="50" height="50" relative="1" as="geometry">
            <mxPoint x="100" y="510" as="sourcePoint" />
            <mxPoint x="100" y="120" as="targetPoint" />
          </mxGeometry>
        </mxCell>
        <mxCell id="o-jL-rA30Tc-0fOHM3Hn-12" value="" style="html=1;points=[];perimeter=orthogonalPerimeter;" parent="1" vertex="1">
          <mxGeometry x="570" y="260" width="10" height="80" as="geometry" />
        </mxCell>
        <mxCell id="o-jL-rA30Tc-0fOHM3Hn-14" value="" style="html=1;points=[];perimeter=orthogonalPerimeter;" parent="1" vertex="1">
          <mxGeometry x="325" y="170" width="10" height="40" as="geometry" />
        </mxCell>
        <mxCell id="o-jL-rA30Tc-0fOHM3Hn-15" value="" style="html=1;points=[];perimeter=orthogonalPerimeter;" parent="1" vertex="1">
          <mxGeometry x="100" y="170" width="10" height="310" as="geometry" />
        </mxCell>
        <mxCell id="o-jL-rA30Tc-0fOHM3Hn-17" value="" style="endArrow=classic;html=1;entryX=0.02;entryY=0.036;entryDx=0;entryDy=0;entryPerimeter=0;" parent="1" target="o-jL-rA30Tc-0fOHM3Hn-14" edge="1">
          <mxGeometry width="50" height="50" relative="1" as="geometry">
            <mxPoint x="112" y="172" as="sourcePoint" />
            <mxPoint x="450" y="180" as="targetPoint" />
          </mxGeometry>
        </mxCell>
        <mxCell id="o-jL-rA30Tc-0fOHM3Hn-18" value="NhanNutXoaSP()" style="text;html=1;strokeColor=none;fillColor=none;align=center;verticalAlign=middle;whiteSpace=wrap;rounded=0;" parent="1" vertex="1">
          <mxGeometry x="180" y="150" width="40" height="20" as="geometry" />
        </mxCell>
        <mxCell id="o-jL-rA30Tc-0fOHM3Hn-19" value="HienThiHopThoaiXacNhan()" style="html=1;verticalAlign=bottom;endArrow=open;dashed=1;endSize=8;" parent="1" edge="1">
          <mxGeometry relative="1" as="geometry">
            <mxPoint x="320" y="210" as="sourcePoint" />
            <mxPoint x="113" y="210" as="targetPoint" />
          </mxGeometry>
        </mxCell>
        <mxCell id="o-jL-rA30Tc-0fOHM3Hn-13" value="" style="html=1;points=[];perimeter=orthogonalPerimeter;" parent="1" vertex="1">
          <mxGeometry x="325" y="250" width="10" height="200" as="geometry" />
        </mxCell>
        <mxCell id="o-jL-rA30Tc-0fOHM3Hn-21" value="" style="endArrow=classic;html=1;" parent="1" edge="1">
          <mxGeometry width="50" height="50" relative="1" as="geometry">
            <mxPoint x="112" y="253" as="sourcePoint" />
            <mxPoint x="320" y="253" as="targetPoint" />
          </mxGeometry>
        </mxCell>
        <mxCell id="o-jL-rA30Tc-0fOHM3Hn-23" value="ConfirmYes()" style="text;html=1;strokeColor=none;fillColor=none;align=center;verticalAlign=middle;whiteSpace=wrap;rounded=0;" parent="1" vertex="1">
          <mxGeometry x="190" y="230" width="40" height="20" as="geometry" />
        </mxCell>
        <mxCell id="o-jL-rA30Tc-0fOHM3Hn-24" value="" style="endArrow=classic;html=1;entryX=0;entryY=0.021;entryDx=0;entryDy=0;entryPerimeter=0;" parent="1" target="o-jL-rA30Tc-0fOHM3Hn-12" edge="1">
          <mxGeometry width="50" height="50" relative="1" as="geometry">
            <mxPoint x="336" y="263" as="sourcePoint" />
            <mxPoint x="450" y="170" as="targetPoint" />
          </mxGeometry>
        </mxCell>
        <mxCell id="o-jL-rA30Tc-0fOHM3Hn-25" value="GuiYeuCauXoaSP(product_id)" style="text;html=1;strokeColor=none;fillColor=none;align=center;verticalAlign=middle;whiteSpace=wrap;rounded=0;" parent="1" vertex="1">
          <mxGeometry x="425" y="240" width="40" height="20" as="geometry" />
        </mxCell>
        <mxCell id="o-jL-rA30Tc-0fOHM3Hn-26" value="" style="html=1;points=[];perimeter=orthogonalPerimeter;" parent="1" vertex="1">
          <mxGeometry x="790" y="280" width="10" height="50" as="geometry" />
        </mxCell>
        <mxCell id="o-jL-rA30Tc-0fOHM3Hn-27" value="" style="endArrow=classic;html=1;entryX=-0.16;entryY=0.017;entryDx=0;entryDy=0;entryPerimeter=0;" parent="1" target="o-jL-rA30Tc-0fOHM3Hn-26" edge="1">
          <mxGeometry width="50" height="50" relative="1" as="geometry">
            <mxPoint x="584" y="281" as="sourcePoint" />
            <mxPoint x="450" y="170" as="targetPoint" />
          </mxGeometry>
        </mxCell>
        <mxCell id="o-jL-rA30Tc-0fOHM3Hn-29" value="XoaSanPham(product_id)" style="text;html=1;strokeColor=none;fillColor=none;align=center;verticalAlign=middle;whiteSpace=wrap;rounded=0;" parent="1" vertex="1">
          <mxGeometry x="660" y="260" width="40" height="20" as="geometry" />
        </mxCell>
        <mxCell id="o-jL-rA30Tc-0fOHM3Hn-30" value="XacNhanXoaSP()" style="html=1;verticalAlign=bottom;endArrow=open;dashed=1;endSize=8;exitX=0;exitY=0.796;exitDx=0;exitDy=0;exitPerimeter=0;" parent="1" source="o-jL-rA30Tc-0fOHM3Hn-26" edge="1">
          <mxGeometry relative="1" as="geometry">
            <mxPoint x="460" y="360" as="sourcePoint" />
            <mxPoint x="581" y="320" as="targetPoint" />
          </mxGeometry>
        </mxCell>
        <mxCell id="o-jL-rA30Tc-0fOHM3Hn-31" value="ThongBaoXoaSPThanhCong()" style="html=1;verticalAlign=bottom;endArrow=open;dashed=1;endSize=8;" parent="1" target="o-jL-rA30Tc-0fOHM3Hn-13" edge="1">
          <mxGeometry relative="1" as="geometry">
            <mxPoint x="566" y="330" as="sourcePoint" />
            <mxPoint x="380" y="360" as="targetPoint" />
          </mxGeometry>
        </mxCell>
        <mxCell id="o-jL-rA30Tc-0fOHM3Hn-32" value="" style="html=1;verticalAlign=bottom;endArrow=open;dashed=1;endSize=8;" parent="1" edge="1">
          <mxGeometry relative="1" as="geometry">
            <mxPoint x="320" y="360" as="sourcePoint" />
            <mxPoint x="114" y="359" as="targetPoint" />
          </mxGeometry>
        </mxCell>
        <mxCell id="o-jL-rA30Tc-0fOHM3Hn-33" value="" style="endArrow=classic;html=1;exitX=1;exitY=0.79;exitDx=0;exitDy=0;exitPerimeter=0;" parent="1" source="o-jL-rA30Tc-0fOHM3Hn-15" target="o-jL-rA30Tc-0fOHM3Hn-13" edge="1">
          <mxGeometry width="50" height="50" relative="1" as="geometry">
            <mxPoint x="400" y="390" as="sourcePoint" />
            <mxPoint x="450" y="340" as="targetPoint" />
          </mxGeometry>
        </mxCell>
        <mxCell id="o-jL-rA30Tc-0fOHM3Hn-34" value="ConfirmNo()" style="text;html=1;strokeColor=none;fillColor=none;align=center;verticalAlign=middle;whiteSpace=wrap;rounded=0;" parent="1" vertex="1">
          <mxGeometry x="190" y="390" width="40" height="20" as="geometry" />
        </mxCell>
        <mxCell id="o-jL-rA30Tc-0fOHM3Hn-35" value="TraLaiGiaoDienSP()" style="html=1;verticalAlign=bottom;endArrow=open;dashed=1;endSize=8;" parent="1" edge="1">
          <mxGeometry relative="1" as="geometry">
            <mxPoint x="325" y="448" as="sourcePoint" />
            <mxPoint x="111" y="448" as="targetPoint" />
          </mxGeometry>
        </mxCell>
        <mxCell id="o-jL-rA30Tc-0fOHM3Hn-36" value="Alter" style="shape=umlFrame;whiteSpace=wrap;html=1;" parent="1" vertex="1">
          <mxGeometry x="30" y="220" width="800" height="280" as="geometry" />
        </mxCell>
        <mxCell id="o-jL-rA30Tc-0fOHM3Hn-37" value="" style="endArrow=none;dashed=1;html=1;exitX=0.002;exitY=0.585;exitDx=0;exitDy=0;exitPerimeter=0;entryX=1.001;entryY=0.579;entryDx=0;entryDy=0;entryPerimeter=0;" parent="1" source="o-jL-rA30Tc-0fOHM3Hn-36" target="o-jL-rA30Tc-0fOHM3Hn-36" edge="1">
          <mxGeometry width="50" height="50" relative="1" as="geometry">
            <mxPoint x="400" y="380" as="sourcePoint" />
            <mxPoint x="450" y="330" as="targetPoint" />
          </mxGeometry>
        </mxCell>
      </root>
    </mxGraphModel>
  </diagram>
</mxfile>
